<?xml version="1.0" encoding="iso-8859-1"?>
<!-- Generator: Adobe Illustrator 19.0.0, SVG Export Plug-In . SVG Version: 6.00 Build 0)  -->
<svg xmlns="http://www.w3.org/2000/svg" xmlns:xlink="http://www.w3.org/1999/xlink" version="1.1" id="Layer_1" x="0px" y="0px" viewBox="0 0 502 502" style="enable-background:new 0 0 502 502;" xml:space="preserve" width="512" height="512">
<g>
	<g>
		<path style="fill:#CCD7EB;" d="M451.854,194.344L451.854,194.344c-22.172,0-40.146-17.974-40.146-40.146v-4.854h-0.041v4.854    c0,22.172-17.974,40.146-40.146,40.146h0c-22.172,0-40.146-17.974-40.146-40.146v-4.854h-0.124v4.854    c0,22.172-17.974,40.146-40.146,40.146h0c-22.172,0-40.146-17.974-40.146-40.146v-4.854h-0.041v4.854    c0,22.172-17.974,40.146-40.146,40.146h0c-22.172,0-40.146-17.974-40.146-40.146v-4.854h0v4.854    c0,22.172-17.974,40.146-40.146,40.146h0c-22.172,0-40.146-17.974-40.146-40.146v-4.854h-0.041v4.854    c0,22.172-17.974,40.146-40.146,40.146h0C27.974,194.344,10,176.37,10,154.198v276.146h36.468l6.312-73.45h117.994l6.312,73.45    h147.827l6.312-73.45H449.22l6.312,73.45H492V154.198C492,176.37,474.026,194.344,451.854,194.344z"/>
		<g>
			<path style="fill:#4D93E8;" d="M10,149.344v4.854c0,22.172,17.974,40.146,40.146,40.146h0c22.172,0,40.146-17.974,40.146-40.146     v-4.854V55.206H10V149.344z"/>
			<path style="fill:#4D93E8;" d="M90.333,149.344v4.854c0,22.172,17.974,40.146,40.146,40.146h0     c22.172,0,40.146-17.974,40.146-40.146v-4.854V55.206H90.333V149.344z"/>
			<path style="fill:#4D93E8;" d="M170.625,149.344v4.854c0,22.172,17.974,40.146,40.146,40.146h0     c22.172,0,40.146-17.974,40.146-40.146v-4.854V55.206h-80.292V149.344z"/>
			<path style="fill:#4D93E8;" d="M250.959,149.344v4.854c0,22.172,17.974,40.146,40.146,40.146h0     c22.172,0,40.146-17.974,40.146-40.146v-4.854V55.206h-80.292V149.344z"/>
			<path style="fill:#4D93E8;" d="M331.375,149.344v4.854c0,22.172,17.974,40.146,40.146,40.146h0     c22.172,0,40.146-17.974,40.146-40.146v-4.854V55.206h-80.292V149.344z"/>
			<path style="fill:#4D93E8;" d="M411.708,55.206v94.138v4.854c0,22.172,17.974,40.146,40.146,40.146h0     c22.172,0,40.146-17.974,40.146-40.146v-4.854V55.206H411.708z"/>
		</g>
	</g>
	<polygon style="fill:#4D93E8;" points="455.532,430.344 449.22,356.894 331.226,356.894 324.914,430.344 323.5,446.794    456.946,446.794  "/>
	<polygon style="fill:#4D93E8;" points="177.086,430.344 170.774,356.894 52.78,356.894 46.468,430.344 45.054,446.794    178.5,446.794  "/>
	<rect x="207" y="269.344" style="fill:#4D93E8;" width="86" height="161"/>
	<g>
		<rect x="46.5" y="226.344" style="fill:#4D93E8;" width="129" height="89"/>
		<rect x="326.5" y="226.344" style="fill:#4D93E8;" width="129" height="89"/>
	</g>
	<g>
		<path d="M175.5,216.344h-129c-5.523,0-10,4.477-10,10v89c0,5.523,4.477,10,10,10h129c5.523,0,10-4.477,10-10v-89    C185.5,220.821,181.023,216.344,175.5,216.344z M165.5,305.344h-109v-69h109V305.344z"/>
		<path d="M455.5,216.344h-129c-5.523,0-10,4.477-10,10v89c0,5.523,4.477,10,10,10h129c5.523,0,10-4.477,10-10v-89    C465.5,220.821,461.023,216.344,455.5,216.344z M445.5,305.344h-109v-69h109V305.344z"/>
		<path d="M261,319.344h-22c-5.523,0-10,4.477-10,10s4.477,10,10,10h22c5.523,0,10-4.477,10-10S266.523,319.344,261,319.344z"/>
		<path d="M10,45.206c-5.523,0-10,4.477-10,10v375.138c0,5.523,4.477,10,10,10h25.572l-0.481,5.594    c-0.24,2.791,0.702,5.554,2.596,7.618c1.894,2.063,4.567,3.238,7.368,3.238H178.5c2.801,0,5.474-1.175,7.368-3.238    c1.894-2.064,2.835-4.827,2.596-7.618l-0.481-5.594h126.035l-0.481,5.594c-0.24,2.791,0.702,5.554,2.596,7.618    c1.894,2.063,4.567,3.238,7.368,3.238h133.446c2.801,0,5.474-1.175,7.368-3.238c1.894-2.064,2.835-4.827,2.596-7.618l-0.481-5.594    H492c5.523,0,10-4.477,10-10V55.206c0-5.523-4.477-10-10-10H10z M421.708,65.206H482v84.138v4.854    c0,16.623-13.523,30.146-30.146,30.146s-30.146-13.523-30.146-30.146V65.206z M341.375,65.206h60.292v88.992    c0,16.623-13.523,30.146-30.146,30.146h0c-16.622,0-30.146-13.523-30.146-30.146V65.206z M260.958,65.206h60.292v88.992    c0,16.623-13.523,30.146-30.146,30.146s-30.146-13.523-30.146-30.146V65.206z M180.625,65.206h60.292v88.992    c0,16.623-13.523,30.146-30.146,30.146s-30.146-13.523-30.146-30.146V65.206z M100.333,65.206h60.292v88.992    c0,16.623-13.523,30.146-30.146,30.146h0c-16.622,0-30.146-13.523-30.146-30.146V65.206z M20,65.206h60.292v88.992    c0,16.623-13.523,30.146-30.146,30.146S20,170.82,20,154.198v-4.854V65.206z M59.302,397.797h104.951l0.877,10.201H58.425    L59.302,397.797z M61.02,377.797l0.937-10.903h99.639l0.937,10.903H61.02z M55.95,436.794l0.756-8.796h110.142l0.756,8.796H55.95z     M217,420.344v-141h66v141H217z M337.747,397.797h104.951l0.877,10.201H336.871L337.747,397.797z M339.466,377.797l0.937-10.903    h99.639l0.937,10.903H339.466z M334.396,436.794l0.756-8.796h110.142l0.756,8.796H334.396z M464.71,420.344l-5.526-64.306    c-0.444-5.172-4.772-9.144-9.963-9.144H331.226c-5.191,0-9.519,3.972-9.963,9.144l-5.526,64.306H303v-151c0-5.523-4.477-10-10-10    h-86c-5.523,0-10,4.477-10,10v151h-10.736l-5.526-64.306c-0.444-5.172-4.772-9.144-9.963-9.144H52.78    c-5.191,0-9.519,3.972-9.963,9.144l-5.526,64.306H20V194.241c8.397,6.338,18.839,10.103,30.146,10.103    c16.415,0,31.013-7.928,40.167-20.157c9.153,12.229,23.752,20.157,40.167,20.157c16.403,0,30.991-7.917,40.146-20.13    c9.155,12.213,23.743,20.13,40.146,20.13c16.415,0,31.013-7.928,40.167-20.157c9.153,12.229,23.752,20.157,40.167,20.157    c16.441,0,31.058-7.954,40.208-20.215c9.151,12.261,23.768,20.215,40.208,20.215c16.415,0,31.013-7.928,40.166-20.157    c9.153,12.228,23.752,20.157,40.167,20.157c11.307,0,21.749-3.765,30.146-10.103v226.103H464.71z"/>
	</g>
</g>















</svg>
